<svg width="535" height="229" viewBox="0 0 535 229" fill="none" xmlns="http://www.w3.org/2000/svg">
<rect y="13" width="535" height="216" fill="#1E2122"/>
<path d="M148.243 120.062L206.93 161.13L206.846 161.25C215.881 169.185 217.688 182.815 210.634 192.896C203.58 202.976 190.156 205.947 179.606 200.177L179.522 200.297L120.77 159.184C109.955 151.615 107.323 136.712 114.892 125.897C122.461 115.081 137.364 112.448 148.18 120.017C148.201 120.032 148.222 120.047 148.243 120.062Z" fill="#019FD9"/>
<path d="M215.338 68.7752L180.926 131.599L180.797 131.529C173.897 141.376 160.546 144.662 149.755 138.751C138.965 132.84 134.547 119.821 139.129 108.705L138.998 108.633L173.447 45.742L173.45 45.7434L173.45 45.7421C179.792 34.1644 194.318 29.9198 205.896 36.2617C217.474 42.6036 221.718 57.1302 215.376 68.708C215.364 68.7305 215.351 68.7528 215.338 68.7752Z" fill="#019FD9"/>
<path d="M85.7425 157.718C74.0965 160.709 61.8182 154.52 57.4668 143.012C53.1157 131.504 58.2282 118.741 68.9395 113.279L68.887 113.14L135.961 87.7796C148.309 83.1111 162.103 89.3349 166.772 101.683C171.44 114.03 165.216 127.826 152.868 132.495L85.7946 157.856L85.7425 157.718Z" fill="#019FD9"/>
<circle cx="150.23" cy="124.419" r="56.4368" transform="rotate(10.3075 150.23 124.419)" fill="#F4F4F4"/>
<circle cx="150.23" cy="124.419" r="56.4368" transform="rotate(10.3075 150.23 124.419)" fill="url(#paint0_linear_72_297)" fill-opacity="0.2"/>
<g filter="url(#filter0_d_72_297)">
<path d="M164.099 52.6675L177.039 39.4266L177.476 38.9906C186.737 29.9821 201.547 29.9559 210.84 39.0382C220.134 48.1205 220.448 62.926 211.655 72.3921L211.229 72.839L198.235 86.1358C189.009 95.5765 173.876 95.7496 164.434 86.5234C154.993 77.2969 154.818 62.1634 164.045 52.722C164.063 52.7036 164.081 52.6858 164.099 52.6675Z" fill="#16B8F3"/>
<path d="M164.099 52.6675L177.039 39.4266L177.476 38.9906C186.737 29.9821 201.547 29.9559 210.84 39.0382C220.134 48.1205 220.448 62.926 211.655 72.3921L211.229 72.839L198.235 86.1358C189.009 95.5765 173.876 95.7496 164.434 86.5234C154.993 77.2969 154.818 62.1634 164.045 52.722C164.063 52.7036 164.081 52.6858 164.099 52.6675Z" fill="url(#paint1_linear_72_297)" fill-opacity="0.2"/>
</g>
<g filter="url(#filter1_d_72_297)">
<path d="M98.5788 111.766L99.1959 111.779C112.109 112.205 122.397 122.857 122.297 135.851C122.198 148.845 111.748 159.338 98.83 159.566L98.2128 159.57L79.6225 159.427L79.0054 159.415C66.0926 158.988 55.8046 148.337 55.9039 135.343C56.005 122.142 66.7879 111.522 79.9886 111.623L98.5788 111.765L98.5788 111.766Z" fill="#16B8F3"/>
<path d="M98.5788 111.766L99.1959 111.779C112.109 112.205 122.397 122.857 122.297 135.851C122.198 148.845 111.748 159.338 98.83 159.566L98.2128 159.57L79.6225 159.427L79.0054 159.415C66.0926 158.988 55.8046 148.337 55.9039 135.343C56.005 122.142 66.7879 111.522 79.9886 111.623L98.5788 111.765L98.5788 111.766Z" fill="url(#paint2_linear_72_297)" fill-opacity="0.2"/>
</g>
<g filter="url(#filter2_d_72_297)">
<path d="M216.646 175.646L216.645 175.648C220.442 188.291 213.272 201.618 200.629 205.415C187.986 209.212 174.659 202.042 170.861 189.399L170.862 189.397L170.861 189.398L165.513 171.593L165.343 170.999C161.941 158.535 169.084 145.563 181.53 141.825C194.173 138.028 207.5 145.198 211.297 157.842L211.298 157.841L216.646 175.646Z" fill="#16B8F3"/>
<path d="M216.646 175.646L216.645 175.648C220.442 188.291 213.272 201.618 200.629 205.415C187.986 209.212 174.659 202.042 170.861 189.399L170.862 189.397L170.861 189.398L165.513 171.593L165.343 170.999C161.941 158.535 169.084 145.563 181.53 141.825C194.173 138.028 207.5 145.198 211.297 157.842L211.298 157.841L216.646 175.646Z" fill="url(#paint3_linear_72_297)" fill-opacity="0.2"/>
</g>
<path d="M252.699 117.674H240.377V81.3102H252.948C256.558 81.3102 259.659 82.0382 262.252 83.4941C264.856 84.9383 266.856 87.0157 268.253 89.7264C269.65 92.4371 270.348 95.6805 270.348 99.4565C270.348 103.244 269.644 106.5 268.235 109.222C266.839 111.945 264.82 114.034 262.181 115.49C259.553 116.946 256.392 117.674 252.699 117.674ZM246.964 111.974H252.38C254.913 111.974 257.026 111.513 258.718 110.589C260.411 109.654 261.684 108.263 262.536 106.417C263.388 104.558 263.814 102.238 263.814 99.4565C263.814 96.6748 263.388 94.3665 262.536 92.5318C261.684 90.6852 260.423 89.3062 258.754 88.3947C257.097 87.4714 255.037 87.0098 252.575 87.0098H246.964V111.974ZM279.107 117.674V81.3102H302.758V86.8322H285.695V96.7044H301.533V102.226H285.695V112.152H302.9V117.674H279.107ZM317.483 81.3102L325.49 94.627H325.774L333.818 81.3102H341.328L330.125 99.492L341.506 117.674H333.871L325.774 104.446H325.49L317.394 117.674H309.794L321.282 99.492L309.936 81.3102H317.483ZM347.402 86.8322V81.3102H376.415V86.8322H365.175V117.674H358.641V86.8322H347.402ZM384.508 117.674V81.3102H408.158V86.8322H391.095V96.7044H406.933V102.226H391.095V112.152H408.3V117.674H384.508ZM417.379 117.674V81.3102H431.015C433.809 81.3102 436.152 81.7955 438.046 82.7662C439.952 83.7368 441.39 85.0981 442.361 86.85C443.343 88.59 443.835 90.6201 443.835 92.9402C443.835 95.2721 443.337 97.2962 442.343 99.0126C441.361 100.717 439.911 102.037 437.993 102.972C436.075 103.895 433.72 104.357 430.926 104.357H421.214V98.8883H430.038C431.672 98.8883 433.01 98.6634 434.051 98.2136C435.093 97.752 435.862 97.0832 436.359 96.2072C436.868 95.3194 437.123 94.2304 437.123 92.9402C437.123 91.6499 436.868 90.5491 436.359 89.6376C435.85 88.7143 435.075 88.0159 434.033 87.5424C432.992 87.0571 431.648 86.8145 430.003 86.8145H423.966V117.674H417.379ZM436.164 101.197L445.166 117.674H437.815L428.973 101.197H436.164Z" fill="#F4F4F4"/>
<path d="M261.08 155.401C260.867 153.602 260.003 152.205 258.487 151.211C256.972 150.216 255.114 149.719 252.912 149.719C251.302 149.719 249.894 149.98 248.686 150.501C247.491 151.021 246.556 151.738 245.881 152.649C245.218 153.56 244.887 154.596 244.887 155.756C244.887 156.727 245.117 157.561 245.579 158.26C246.053 158.946 246.656 159.52 247.39 159.982C248.124 160.432 248.893 160.805 249.698 161.101C250.503 161.385 251.243 161.616 251.918 161.793L255.611 162.787C256.558 163.036 257.612 163.379 258.772 163.817C259.943 164.255 261.062 164.853 262.127 165.611C263.205 166.356 264.092 167.315 264.791 168.487C265.489 169.659 265.838 171.097 265.838 172.802C265.838 174.767 265.323 176.542 264.294 178.128C263.276 179.715 261.784 180.975 259.819 181.91C257.866 182.845 255.493 183.313 252.699 183.313C250.095 183.313 247.84 182.893 245.934 182.052C244.04 181.212 242.549 180.04 241.46 178.537C240.383 177.033 239.773 175.287 239.631 173.299H244.176C244.295 174.672 244.756 175.808 245.561 176.708C246.378 177.596 247.408 178.259 248.651 178.697C249.906 179.123 251.255 179.336 252.699 179.336C254.38 179.336 255.889 179.064 257.227 178.519C258.564 177.963 259.624 177.193 260.405 176.211C261.186 175.216 261.577 174.056 261.577 172.731C261.577 171.523 261.24 170.541 260.565 169.783C259.89 169.026 259.002 168.41 257.902 167.937C256.801 167.463 255.611 167.049 254.333 166.694L249.858 165.415C247.017 164.599 244.768 163.433 243.111 161.917C241.454 160.402 240.625 158.42 240.625 155.969C240.625 153.933 241.176 152.158 242.277 150.643C243.389 149.116 244.881 147.932 246.751 147.091C248.633 146.239 250.734 145.813 253.054 145.813C255.398 145.813 257.481 146.233 259.304 147.074C261.127 147.902 262.571 149.039 263.637 150.483C264.714 151.927 265.282 153.566 265.341 155.401H261.08ZM275.578 182.674V146.31H297.524V150.216H279.982V162.503H296.388V166.41H279.982V178.768H297.808V182.674H275.578ZM336.796 146.31V182.674H332.535L312.72 154.123H312.364V182.674H307.961V146.31H312.222L332.109 174.932H332.464V146.31H336.796ZM367.994 155.401C367.781 153.602 366.917 152.205 365.402 151.211C363.886 150.216 362.028 149.719 359.826 149.719C358.216 149.719 356.808 149.98 355.6 150.501C354.405 151.021 353.47 151.738 352.795 152.649C352.132 153.56 351.801 154.596 351.801 155.756C351.801 156.727 352.032 157.561 352.493 158.26C352.967 158.946 353.57 159.52 354.304 159.982C355.038 160.432 355.808 160.805 356.612 161.101C357.417 161.385 358.157 161.616 358.832 161.793L362.525 162.787C363.472 163.036 364.526 163.379 365.686 163.817C366.858 164.255 367.976 164.853 369.041 165.611C370.119 166.356 371.006 167.315 371.705 168.487C372.403 169.659 372.752 171.097 372.752 172.802C372.752 174.767 372.237 176.542 371.208 178.128C370.19 179.715 368.698 180.975 366.733 181.91C364.78 182.845 362.407 183.313 359.613 183.313C357.009 183.313 354.754 182.893 352.848 182.052C350.954 181.212 349.463 180.04 348.374 178.537C347.297 177.033 346.687 175.287 346.545 173.299H351.09C351.209 174.672 351.67 175.808 352.475 176.708C353.292 177.596 354.322 178.259 355.565 178.697C356.82 179.123 358.169 179.336 359.613 179.336C361.294 179.336 362.803 179.064 364.141 178.519C365.478 177.963 366.538 177.193 367.319 176.211C368.1 175.216 368.491 174.056 368.491 172.731C368.491 171.523 368.154 170.541 367.479 169.783C366.804 169.026 365.916 168.41 364.816 167.937C363.715 167.463 362.525 167.049 361.247 166.694L356.772 165.415C353.931 164.599 351.682 163.433 350.025 161.917C348.368 160.402 347.539 158.42 347.539 155.969C347.539 153.933 348.09 152.158 349.191 150.643C350.303 149.116 351.795 147.932 353.665 147.091C355.547 146.239 357.648 145.813 359.968 145.813C362.312 145.813 364.395 146.233 366.218 147.074C368.041 147.902 369.485 149.039 370.551 150.483C371.628 151.927 372.196 153.566 372.255 155.401H367.994ZM382.492 182.674V146.31H404.438V150.216H386.896V162.503H403.302V166.41H386.896V178.768H404.722V182.674H382.492Z" fill="#16B8F3"/>
<defs>
<filter id="filter0_d_72_297" x="153.237" y="32.2305" width="68.7998" height="69.1006" filterUnits="userSpaceOnUse" color-interpolation-filters="sRGB">
<feFlood flood-opacity="0" result="BackgroundImageFix"/>
<feColorMatrix in="SourceAlpha" type="matrix" values="0 0 0 0 0 0 0 0 0 0 0 0 0 0 0 0 0 0 127 0" result="hardAlpha"/>
<feOffset dy="4"/>
<feGaussianBlur stdDeviation="2"/>
<feComposite in2="hardAlpha" operator="out"/>
<feColorMatrix type="matrix" values="0 0 0 0 0 0 0 0 0 0 0 0 0 0 0 0 0 0 0.25 0"/>
<feBlend mode="normal" in2="BackgroundImageFix" result="effect1_dropShadow_72_297"/>
<feBlend mode="normal" in="SourceGraphic" in2="effect1_dropShadow_72_297" result="shape"/>
</filter>
<filter id="filter1_d_72_297" x="51.9033" y="111.622" width="74.3945" height="55.9473" filterUnits="userSpaceOnUse" color-interpolation-filters="sRGB">
<feFlood flood-opacity="0" result="BackgroundImageFix"/>
<feColorMatrix in="SourceAlpha" type="matrix" values="0 0 0 0 0 0 0 0 0 0 0 0 0 0 0 0 0 0 127 0" result="hardAlpha"/>
<feOffset dy="4"/>
<feGaussianBlur stdDeviation="2"/>
<feComposite in2="hardAlpha" operator="out"/>
<feColorMatrix type="matrix" values="0 0 0 0 0 0 0 0 0 0 0 0 0 0 0 0 0 0 0.25 0"/>
<feBlend mode="normal" in2="BackgroundImageFix" result="effect1_dropShadow_72_297"/>
<feBlend mode="normal" in="SourceGraphic" in2="effect1_dropShadow_72_297" result="shape"/>
</filter>
<filter id="filter2_d_72_297" x="154.497" y="130.809" width="73.165" height="85.623" filterUnits="userSpaceOnUse" color-interpolation-filters="sRGB">
<feFlood flood-opacity="0" result="BackgroundImageFix"/>
<feColorMatrix in="SourceAlpha" type="matrix" values="0 0 0 0 0 0 0 0 0 0 0 0 0 0 0 0 0 0 127 0" result="hardAlpha"/>
<feOffset/>
<feGaussianBlur stdDeviation="5"/>
<feComposite in2="hardAlpha" operator="out"/>
<feColorMatrix type="matrix" values="0 0 0 0 0 0 0 0 0 0 0 0 0 0 0 0 0 0 0.52 0"/>
<feBlend mode="normal" in2="BackgroundImageFix" result="effect1_dropShadow_72_297"/>
<feBlend mode="normal" in="SourceGraphic" in2="effect1_dropShadow_72_297" result="shape"/>
</filter>
<linearGradient id="paint0_linear_72_297" x1="192.06" y1="125.083" x2="101.097" y2="125.083" gradientUnits="userSpaceOnUse">
<stop offset="0.254808" stop-opacity="0"/>
<stop offset="0.990385" stop-opacity="0.91"/>
</linearGradient>
<linearGradient id="paint1_linear_72_297" x1="170.542" y1="46.0739" x2="204.733" y2="79.487" gradientUnits="userSpaceOnUse">
<stop offset="0.567308" stop-opacity="0"/>
<stop offset="1"/>
</linearGradient>
<linearGradient id="paint2_linear_72_297" x1="89.2837" y1="111.694" x2="88.9176" y2="159.498" gradientUnits="userSpaceOnUse">
<stop offset="0.567308" stop-opacity="0"/>
<stop offset="1"/>
</linearGradient>
<linearGradient id="paint3_linear_72_297" x1="213.972" y1="166.744" x2="168.187" y2="180.496" gradientUnits="userSpaceOnUse">
<stop offset="0.567308" stop-opacity="0"/>
<stop offset="1"/>
</linearGradient>
</defs>
</svg>
