<svg width="430" height="220" viewBox="0 0 430 220" fill="none" xmlns="http://www.w3.org/2000/svg">
<path d="M111.241 120.062L169.928 161.13L169.844 161.25C178.879 169.185 180.686 182.815 173.632 192.896C166.578 202.976 153.154 205.947 142.604 200.177L142.52 200.297L83.7684 159.184C72.9532 151.615 70.3215 136.712 77.8899 125.897C85.4586 115.081 100.362 112.448 111.178 120.017C111.199 120.032 111.22 120.047 111.241 120.062Z" fill="#019FD9"/>
<path d="M178.337 68.7752L143.924 131.599L143.795 131.529C136.895 141.376 123.544 144.662 112.753 138.751C101.963 132.84 97.5447 119.821 102.127 108.705L101.996 108.633L136.446 45.742L136.448 45.7434L136.448 45.7421C142.79 34.1644 157.316 29.9198 168.894 36.2617C180.472 42.6036 184.716 57.1302 178.374 68.708C178.362 68.7305 178.349 68.7528 178.337 68.7752Z" fill="#019FD9"/>
<path d="M48.7405 157.718C37.0945 160.709 24.8163 154.52 20.4649 143.012C16.1137 131.504 21.2262 118.741 31.9376 113.279L31.8851 113.14L98.9589 87.7796C111.307 83.1111 125.101 89.3349 129.77 101.683C134.438 114.03 128.214 127.826 115.866 132.495L48.7927 157.856L48.7405 157.718Z" fill="#019FD9"/>
<circle cx="113.229" cy="124.419" r="56.4368" transform="rotate(10.3075 113.229 124.419)" fill="#F4F4F4"/>
<circle cx="113.229" cy="124.419" r="56.4368" transform="rotate(10.3075 113.229 124.419)" fill="url(#paint0_linear_72_265)" fill-opacity="0.2"/>
<g filter="url(#filter0_d_72_265)">
<path d="M127.097 52.6675L140.037 39.4266L140.474 38.9906C149.735 29.9821 164.545 29.9559 173.838 39.0382C183.132 48.1205 183.446 62.926 174.653 72.3921L174.228 72.839L161.233 86.1358C152.007 95.5765 136.874 95.7496 127.433 86.5234C117.991 77.2969 117.816 62.1634 127.043 52.722C127.061 52.7036 127.079 52.6858 127.097 52.6675Z" fill="#16B8F3"/>
<path d="M127.097 52.6675L140.037 39.4266L140.474 38.9906C149.735 29.9821 164.545 29.9559 173.838 39.0382C183.132 48.1205 183.446 62.926 174.653 72.3921L174.228 72.839L161.233 86.1358C152.007 95.5765 136.874 95.7496 127.433 86.5234C117.991 77.2969 117.816 62.1634 127.043 52.722C127.061 52.7036 127.079 52.6858 127.097 52.6675Z" fill="url(#paint1_linear_72_265)" fill-opacity="0.2"/>
</g>
<g filter="url(#filter1_d_72_265)">
<path d="M61.5769 111.766L62.194 111.779C75.1069 112.205 85.395 122.857 85.2955 135.851C85.1959 148.845 74.7459 159.338 61.8281 159.566L61.2108 159.57L42.6206 159.427L42.0034 159.415C29.0907 158.988 18.8027 148.337 18.9019 135.343C19.003 122.142 29.7859 111.522 42.9866 111.623L61.5769 111.765L61.5769 111.766Z" fill="#16B8F3"/>
<path d="M61.5769 111.766L62.194 111.779C75.1069 112.205 85.395 122.857 85.2955 135.851C85.1959 148.845 74.7459 159.338 61.8281 159.566L61.2108 159.57L42.6206 159.427L42.0034 159.415C29.0907 158.988 18.8027 148.337 18.9019 135.343C19.003 122.142 29.7859 111.522 42.9866 111.623L61.5769 111.765L61.5769 111.766Z" fill="url(#paint2_linear_72_265)" fill-opacity="0.2"/>
</g>
<g filter="url(#filter2_d_72_265)">
<path d="M179.644 175.646L179.643 175.648C183.44 188.291 176.27 201.618 163.627 205.415C150.984 209.212 137.657 202.042 133.859 189.399L133.86 189.397L133.859 189.398L128.511 171.593L128.341 170.999C124.939 158.535 132.082 145.563 144.528 141.825C157.171 138.028 170.498 145.198 174.295 157.842L174.296 157.841L179.644 175.646Z" fill="#16B8F3"/>
<path d="M179.644 175.646L179.643 175.648C183.44 188.291 176.27 201.618 163.627 205.415C150.984 209.212 137.657 202.042 133.859 189.399L133.86 189.397L133.859 189.398L128.511 171.593L128.341 170.999C124.939 158.535 132.082 145.563 144.528 141.825C157.171 138.028 170.498 145.198 174.295 157.842L174.296 157.841L179.644 175.646Z" fill="url(#paint3_linear_72_265)" fill-opacity="0.2"/>
</g>
<path d="M215.697 117.674H203.375V81.3102H215.946C219.556 81.3102 222.657 82.0382 225.25 83.4941C227.854 84.9383 229.854 87.0157 231.251 89.7264C232.648 92.4371 233.346 95.6805 233.346 99.4565C233.346 103.244 232.642 106.5 231.233 109.222C229.837 111.945 227.818 114.034 225.179 115.49C222.551 116.946 219.39 117.674 215.697 117.674ZM209.962 111.974H215.378C217.911 111.974 220.024 111.513 221.716 110.589C223.409 109.654 224.682 108.263 225.534 106.417C226.386 104.558 226.812 102.238 226.812 99.4565C226.812 96.6748 226.386 94.3665 225.534 92.5318C224.682 90.6852 223.421 89.3062 221.752 88.3947C220.095 87.4714 218.035 87.0098 215.573 87.0098H209.962V111.974ZM242.105 117.674V81.3102H265.756V86.8322H248.693V96.7044H264.531V102.226H248.693V112.152H265.898V117.674H242.105ZM280.481 81.3102L288.488 94.627H288.772L296.816 81.3102H304.326L293.123 99.492L304.504 117.674H296.869L288.772 104.446H288.488L280.392 117.674H272.792L284.28 99.492L272.934 81.3102H280.481ZM310.4 86.8322V81.3102H339.413V86.8322H328.173V117.674H321.639V86.8322H310.4ZM347.506 117.674V81.3102H371.156V86.8322H354.093V96.7044H369.931V102.226H354.093V112.152H371.298V117.674H347.506ZM380.377 117.674V81.3102H394.013C396.807 81.3102 399.15 81.7955 401.044 82.7662C402.95 83.7368 404.388 85.0981 405.359 86.85C406.341 88.59 406.833 90.6201 406.833 92.9402C406.833 95.2721 406.335 97.2962 405.341 99.0126C404.359 100.717 402.909 102.037 400.991 102.972C399.073 103.895 396.718 104.357 393.924 104.357H384.212V98.8883H393.036C394.67 98.8883 396.008 98.6634 397.049 98.2136C398.091 97.752 398.86 97.0832 399.358 96.2072C399.867 95.3194 400.121 94.2304 400.121 92.9402C400.121 91.6499 399.867 90.5491 399.358 89.6376C398.849 88.7143 398.073 88.0159 397.032 87.5424C395.99 87.0571 394.646 86.8145 393.001 86.8145H386.964V117.674H380.377ZM399.162 101.197L408.164 117.674H400.813L391.971 101.197H399.162Z" fill="#1D2021"/>
<path d="M224.078 155.401C223.865 153.602 223.001 152.205 221.486 151.211C219.97 150.216 218.112 149.719 215.91 149.719C214.3 149.719 212.892 149.98 211.684 150.501C210.489 151.021 209.554 151.738 208.879 152.649C208.216 153.56 207.885 154.596 207.885 155.756C207.885 156.727 208.116 157.561 208.577 158.26C209.051 158.946 209.654 159.52 210.388 159.982C211.122 160.432 211.892 160.805 212.696 161.101C213.501 161.385 214.241 161.616 214.916 161.793L218.609 162.787C219.556 163.036 220.61 163.379 221.77 163.817C222.941 164.255 224.06 164.853 225.125 165.611C226.203 166.356 227.09 167.315 227.789 168.487C228.487 169.659 228.836 171.097 228.836 172.802C228.836 174.767 228.321 176.542 227.292 178.128C226.274 179.715 224.782 180.975 222.817 181.91C220.864 182.845 218.491 183.313 215.697 183.313C213.093 183.313 210.838 182.893 208.932 182.052C207.038 181.212 205.547 180.04 204.458 178.537C203.381 177.033 202.771 175.287 202.629 173.299H207.174C207.293 174.672 207.754 175.808 208.559 176.708C209.376 177.596 210.406 178.259 211.649 178.697C212.904 179.123 214.253 179.336 215.697 179.336C217.378 179.336 218.887 179.064 220.225 178.519C221.562 177.963 222.622 177.193 223.403 176.211C224.184 175.216 224.575 174.056 224.575 172.731C224.575 171.523 224.238 170.541 223.563 169.783C222.888 169.026 222 168.41 220.9 167.937C219.799 167.463 218.609 167.049 217.331 166.694L212.856 165.415C210.015 164.599 207.766 163.433 206.109 161.917C204.452 160.402 203.623 158.42 203.623 155.969C203.623 153.933 204.174 152.158 205.275 150.643C206.387 149.116 207.879 147.932 209.749 147.091C211.631 146.239 213.732 145.813 216.052 145.813C218.396 145.813 220.479 146.233 222.302 147.074C224.125 147.902 225.569 149.039 226.635 150.483C227.712 151.927 228.28 153.566 228.339 155.401H224.078ZM238.576 182.674V146.31H260.522V150.216H242.98V162.503H259.386V166.41H242.98V178.768H260.806V182.674H238.576ZM299.794 146.31V182.674H295.533L275.718 154.123H275.362V182.674H270.959V146.31H275.22L295.107 174.932H295.462V146.31H299.794ZM330.992 155.401C330.779 153.602 329.915 152.205 328.4 151.211C326.884 150.216 325.026 149.719 322.824 149.719C321.214 149.719 319.806 149.98 318.598 150.501C317.403 151.021 316.468 151.738 315.793 152.649C315.13 153.56 314.799 154.596 314.799 155.756C314.799 156.727 315.03 157.561 315.491 158.26C315.965 158.946 316.568 159.52 317.302 159.982C318.036 160.432 318.806 160.805 319.611 161.101C320.415 161.385 321.155 161.616 321.83 161.793L325.523 162.787C326.47 163.036 327.524 163.379 328.684 163.817C329.856 164.255 330.974 164.853 332.04 165.611C333.117 166.356 334.004 167.315 334.703 168.487C335.401 169.659 335.75 171.097 335.75 172.802C335.75 174.767 335.236 176.542 334.206 178.128C333.188 179.715 331.696 180.975 329.731 181.91C327.778 182.845 325.405 183.313 322.611 183.313C320.007 183.313 317.752 182.893 315.846 182.052C313.952 181.212 312.461 180.04 311.372 178.537C310.295 177.033 309.685 175.287 309.543 173.299H314.089C314.207 174.672 314.669 175.808 315.473 176.708C316.29 177.596 317.32 178.259 318.563 178.697C319.818 179.123 321.167 179.336 322.611 179.336C324.292 179.336 325.801 179.064 327.139 178.519C328.477 177.963 329.536 177.193 330.317 176.211C331.098 175.216 331.489 174.056 331.489 172.731C331.489 171.523 331.152 170.541 330.477 169.783C329.802 169.026 328.915 168.41 327.814 167.937C326.713 167.463 325.523 167.049 324.245 166.694L319.77 165.415C316.929 164.599 314.68 163.433 313.023 161.917C311.366 160.402 310.537 158.42 310.537 155.969C310.537 153.933 311.088 152.158 312.189 150.643C313.301 149.116 314.793 147.932 316.663 147.091C318.545 146.239 320.646 145.813 322.966 145.813C325.31 145.813 327.393 146.233 329.216 147.074C331.039 147.902 332.483 149.039 333.549 150.483C334.626 151.927 335.194 153.566 335.253 155.401H330.992ZM345.49 182.674V146.31H367.436V150.216H349.894V162.503H366.3V166.41H349.894V178.768H367.72V182.674H345.49Z" fill="#16B8F3"/>
<defs>
<filter id="filter0_d_72_265" x="116.235" y="32.2305" width="68.7998" height="69.1006" filterUnits="userSpaceOnUse" color-interpolation-filters="sRGB">
<feFlood flood-opacity="0" result="BackgroundImageFix"/>
<feColorMatrix in="SourceAlpha" type="matrix" values="0 0 0 0 0 0 0 0 0 0 0 0 0 0 0 0 0 0 127 0" result="hardAlpha"/>
<feOffset dy="4"/>
<feGaussianBlur stdDeviation="2"/>
<feComposite in2="hardAlpha" operator="out"/>
<feColorMatrix type="matrix" values="0 0 0 0 0 0 0 0 0 0 0 0 0 0 0 0 0 0 0.25 0"/>
<feBlend mode="normal" in2="BackgroundImageFix" result="effect1_dropShadow_72_265"/>
<feBlend mode="normal" in="SourceGraphic" in2="effect1_dropShadow_72_265" result="shape"/>
</filter>
<filter id="filter1_d_72_265" x="14.9014" y="111.622" width="74.3945" height="55.9473" filterUnits="userSpaceOnUse" color-interpolation-filters="sRGB">
<feFlood flood-opacity="0" result="BackgroundImageFix"/>
<feColorMatrix in="SourceAlpha" type="matrix" values="0 0 0 0 0 0 0 0 0 0 0 0 0 0 0 0 0 0 127 0" result="hardAlpha"/>
<feOffset dy="4"/>
<feGaussianBlur stdDeviation="2"/>
<feComposite in2="hardAlpha" operator="out"/>
<feColorMatrix type="matrix" values="0 0 0 0 0 0 0 0 0 0 0 0 0 0 0 0 0 0 0.25 0"/>
<feBlend mode="normal" in2="BackgroundImageFix" result="effect1_dropShadow_72_265"/>
<feBlend mode="normal" in="SourceGraphic" in2="effect1_dropShadow_72_265" result="shape"/>
</filter>
<filter id="filter2_d_72_265" x="117.495" y="130.809" width="73.165" height="85.623" filterUnits="userSpaceOnUse" color-interpolation-filters="sRGB">
<feFlood flood-opacity="0" result="BackgroundImageFix"/>
<feColorMatrix in="SourceAlpha" type="matrix" values="0 0 0 0 0 0 0 0 0 0 0 0 0 0 0 0 0 0 127 0" result="hardAlpha"/>
<feOffset/>
<feGaussianBlur stdDeviation="5"/>
<feComposite in2="hardAlpha" operator="out"/>
<feColorMatrix type="matrix" values="0 0 0 0 0 0 0 0 0 0 0 0 0 0 0 0 0 0 0.52 0"/>
<feBlend mode="normal" in2="BackgroundImageFix" result="effect1_dropShadow_72_265"/>
<feBlend mode="normal" in="SourceGraphic" in2="effect1_dropShadow_72_265" result="shape"/>
</filter>
<linearGradient id="paint0_linear_72_265" x1="155.058" y1="125.083" x2="64.0953" y2="125.083" gradientUnits="userSpaceOnUse">
<stop offset="0.254808" stop-opacity="0"/>
<stop offset="0.990385" stop-opacity="0.91"/>
</linearGradient>
<linearGradient id="paint1_linear_72_265" x1="133.54" y1="46.0739" x2="167.731" y2="79.487" gradientUnits="userSpaceOnUse">
<stop offset="0.567308" stop-opacity="0"/>
<stop offset="1"/>
</linearGradient>
<linearGradient id="paint2_linear_72_265" x1="52.2817" y1="111.694" x2="51.9157" y2="159.498" gradientUnits="userSpaceOnUse">
<stop offset="0.567308" stop-opacity="0"/>
<stop offset="1"/>
</linearGradient>
<linearGradient id="paint3_linear_72_265" x1="176.97" y1="166.744" x2="131.185" y2="180.496" gradientUnits="userSpaceOnUse">
<stop offset="0.567308" stop-opacity="0"/>
<stop offset="1"/>
</linearGradient>
</defs>
</svg>
