<svg width="430" height="220" viewBox="0 0 430 220" fill="none" xmlns="http://www.w3.org/2000/svg">
<path d="M111.241 120.062L169.928 161.13L169.844 161.25C178.879 169.185 180.686 182.815 173.632 192.896C166.578 202.976 153.154 205.947 142.604 200.177L142.52 200.297L83.7684 159.184C72.9532 151.615 70.3215 136.712 77.8899 125.897C85.4586 115.081 100.362 112.448 111.178 120.017C111.199 120.032 111.22 120.047 111.241 120.062Z" fill="#019FD9"/>
<path d="M178.337 68.7752L143.924 131.599L143.795 131.529C136.895 141.376 123.544 144.662 112.753 138.751C101.963 132.84 97.5447 119.821 102.127 108.705L101.996 108.633L136.446 45.742L136.448 45.7434L136.448 45.7421C142.79 34.1644 157.316 29.9198 168.894 36.2617C180.472 42.6036 184.716 57.1302 178.374 68.708C178.362 68.7305 178.349 68.7528 178.337 68.7752Z" fill="#019FD9"/>
<path d="M48.7405 157.718C37.0945 160.709 24.8163 154.52 20.4649 143.012C16.1137 131.504 21.2262 118.741 31.9376 113.279L31.8851 113.14L98.9589 87.7796C111.307 83.1111 125.101 89.3349 129.77 101.683C134.438 114.03 128.214 127.826 115.866 132.495L48.7927 157.856L48.7405 157.718Z" fill="#019FD9"/>
<circle cx="113.229" cy="124.419" r="56.4368" transform="rotate(10.3075 113.229 124.419)" fill="#F4F4F4"/>
<circle cx="113.229" cy="124.419" r="56.4368" transform="rotate(10.3075 113.229 124.419)" fill="url(#paint0_linear_72_298)" fill-opacity="0.2"/>
<g filter="url(#filter0_d_72_298)">
<path d="M127.097 52.6675L140.037 39.4266L140.474 38.9906C149.735 29.9821 164.545 29.9559 173.838 39.0382C183.132 48.1205 183.446 62.926 174.653 72.3921L174.228 72.839L161.233 86.1358C152.007 95.5765 136.874 95.7496 127.433 86.5234C117.991 77.2969 117.816 62.1634 127.043 52.722C127.061 52.7036 127.079 52.6858 127.097 52.6675Z" fill="#16B8F3"/>
<path d="M127.097 52.6675L140.037 39.4266L140.474 38.9906C149.735 29.9821 164.545 29.9559 173.838 39.0382C183.132 48.1205 183.446 62.926 174.653 72.3921L174.228 72.839L161.233 86.1358C152.007 95.5765 136.874 95.7496 127.433 86.5234C117.991 77.2969 117.816 62.1634 127.043 52.722C127.061 52.7036 127.079 52.6858 127.097 52.6675Z" fill="url(#paint1_linear_72_298)" fill-opacity="0.2"/>
</g>
<g filter="url(#filter1_d_72_298)">
<path d="M61.5769 111.766L62.194 111.779C75.1069 112.205 85.395 122.857 85.2955 135.851C85.1959 148.845 74.7459 159.338 61.8281 159.566L61.2108 159.57L42.6206 159.427L42.0034 159.415C29.0907 158.988 18.8027 148.337 18.9019 135.343C19.003 122.142 29.7859 111.522 42.9866 111.623L61.5769 111.765L61.5769 111.766Z" fill="#16B8F3"/>
<path d="M61.5769 111.766L62.194 111.779C75.1069 112.205 85.395 122.857 85.2955 135.851C85.1959 148.845 74.7459 159.338 61.8281 159.566L61.2108 159.57L42.6206 159.427L42.0034 159.415C29.0907 158.988 18.8027 148.337 18.9019 135.343C19.003 122.142 29.7859 111.522 42.9866 111.623L61.5769 111.765L61.5769 111.766Z" fill="url(#paint2_linear_72_298)" fill-opacity="0.2"/>
</g>
<g filter="url(#filter2_d_72_298)">
<path d="M179.644 175.646L179.643 175.648C183.44 188.291 176.27 201.618 163.627 205.415C150.984 209.212 137.657 202.042 133.859 189.399L133.86 189.397L133.859 189.398L128.511 171.593L128.341 170.999C124.939 158.535 132.082 145.563 144.528 141.825C157.171 138.028 170.498 145.198 174.295 157.842L174.296 157.841L179.644 175.646Z" fill="#16B8F3"/>
<path d="M179.644 175.646L179.643 175.648C183.44 188.291 176.27 201.618 163.627 205.415C150.984 209.212 137.657 202.042 133.859 189.399L133.86 189.397L133.859 189.398L128.511 171.593L128.341 170.999C124.939 158.535 132.082 145.563 144.528 141.825C157.171 138.028 170.498 145.198 174.295 157.842L174.296 157.841L179.644 175.646Z" fill="url(#paint3_linear_72_298)" fill-opacity="0.2"/>
</g>
<path d="M215.699 117.674H203.377V81.3102H215.948C219.558 81.3102 222.659 82.0382 225.252 83.4941C227.856 84.9383 229.856 87.0157 231.253 89.7264C232.65 92.4371 233.348 95.6805 233.348 99.4565C233.348 103.244 232.644 106.5 231.235 109.222C229.839 111.945 227.82 114.034 225.181 115.49C222.553 116.946 219.392 117.674 215.699 117.674ZM209.964 111.974H215.38C217.913 111.974 220.026 111.513 221.718 110.589C223.411 109.654 224.684 108.263 225.536 106.417C226.388 104.558 226.814 102.238 226.814 99.4565C226.814 96.6748 226.388 94.3665 225.536 92.5318C224.684 90.6852 223.423 89.3062 221.754 88.3947C220.097 87.4714 218.037 87.0098 215.575 87.0098H209.964V111.974ZM242.107 117.674V81.3102H265.758V86.8322H248.695V96.7044H264.533V102.226H248.695V112.152H265.9V117.674H242.107ZM280.483 81.3102L288.49 94.627H288.774L296.818 81.3102H304.328L293.125 99.492L304.506 117.674H296.871L288.774 104.446H288.49L280.394 117.674H272.794L284.282 99.492L272.936 81.3102H280.483ZM310.402 86.8322V81.3102H339.415V86.8322H328.175V117.674H321.641V86.8322H310.402ZM347.508 117.674V81.3102H371.158V86.8322H354.095V96.7044H369.933V102.226H354.095V112.152H371.3V117.674H347.508ZM380.379 117.674V81.3102H394.015C396.809 81.3102 399.152 81.7955 401.046 82.7662C402.952 83.7368 404.39 85.0981 405.361 86.85C406.343 88.59 406.835 90.6201 406.835 92.9402C406.835 95.2721 406.337 97.2962 405.343 99.0126C404.361 100.717 402.911 102.037 400.993 102.972C399.075 103.895 396.72 104.357 393.926 104.357H384.214V98.8883H393.038C394.672 98.8883 396.01 98.6634 397.051 98.2136C398.093 97.752 398.862 97.0832 399.359 96.2072C399.868 95.3194 400.123 94.2304 400.123 92.9402C400.123 91.6499 399.868 90.5491 399.359 89.6376C398.85 88.7143 398.075 88.0159 397.033 87.5424C395.992 87.0571 394.648 86.8145 393.003 86.8145H386.966V117.674H380.379ZM399.164 101.197L408.166 117.674H400.815L391.973 101.197H399.164Z" fill="#F4F4F4"/>
<path d="M224.08 155.401C223.867 153.602 223.003 152.205 221.487 151.211C219.972 150.216 218.114 149.719 215.912 149.719C214.302 149.719 212.894 149.98 211.686 150.501C210.491 151.021 209.556 151.738 208.881 152.649C208.218 153.56 207.887 154.596 207.887 155.756C207.887 156.727 208.117 157.561 208.579 158.26C209.053 158.946 209.656 159.52 210.39 159.982C211.124 160.432 211.893 160.805 212.698 161.101C213.503 161.385 214.243 161.616 214.918 161.793L218.611 162.787C219.558 163.036 220.612 163.379 221.772 163.817C222.943 164.255 224.062 164.853 225.127 165.611C226.205 166.356 227.092 167.315 227.791 168.487C228.489 169.659 228.838 171.097 228.838 172.802C228.838 174.767 228.323 176.542 227.294 178.128C226.276 179.715 224.784 180.975 222.819 181.91C220.866 182.845 218.493 183.313 215.699 183.313C213.095 183.313 210.84 182.893 208.934 182.052C207.04 181.212 205.549 180.04 204.46 178.537C203.383 177.033 202.773 175.287 202.631 173.299H207.176C207.295 174.672 207.756 175.808 208.561 176.708C209.378 177.596 210.408 178.259 211.651 178.697C212.906 179.123 214.255 179.336 215.699 179.336C217.38 179.336 218.889 179.064 220.227 178.519C221.564 177.963 222.624 177.193 223.405 176.211C224.186 175.216 224.577 174.056 224.577 172.731C224.577 171.523 224.24 170.541 223.565 169.783C222.89 169.026 222.002 168.41 220.902 167.937C219.801 167.463 218.611 167.049 217.333 166.694L212.858 165.415C210.017 164.599 207.768 163.433 206.111 161.917C204.454 160.402 203.625 158.42 203.625 155.969C203.625 153.933 204.176 152.158 205.277 150.643C206.389 149.116 207.881 147.932 209.751 147.091C211.633 146.239 213.734 145.813 216.054 145.813C218.398 145.813 220.481 146.233 222.304 147.074C224.127 147.902 225.571 149.039 226.637 150.483C227.714 151.927 228.282 153.566 228.341 155.401H224.08ZM238.578 182.674V146.31H260.524V150.216H242.982V162.503H259.388V166.41H242.982V178.768H260.808V182.674H238.578ZM299.796 146.31V182.674H295.535L275.72 154.123H275.364V182.674H270.961V146.31H275.222L295.109 174.932H295.464V146.31H299.796ZM330.994 155.401C330.781 153.602 329.917 152.205 328.402 151.211C326.886 150.216 325.028 149.719 322.826 149.719C321.216 149.719 319.808 149.98 318.6 150.501C317.405 151.021 316.47 151.738 315.795 152.649C315.132 153.56 314.801 154.596 314.801 155.756C314.801 156.727 315.032 157.561 315.493 158.26C315.967 158.946 316.57 159.52 317.304 159.982C318.038 160.432 318.808 160.805 319.612 161.101C320.417 161.385 321.157 161.616 321.832 161.793L325.525 162.787C326.472 163.036 327.526 163.379 328.686 163.817C329.858 164.255 330.976 164.853 332.041 165.611C333.119 166.356 334.006 167.315 334.705 168.487C335.403 169.659 335.752 171.097 335.752 172.802C335.752 174.767 335.237 176.542 334.208 178.128C333.19 179.715 331.698 180.975 329.733 181.91C327.78 182.845 325.407 183.313 322.613 183.313C320.009 183.313 317.754 182.893 315.848 182.052C313.954 181.212 312.463 180.04 311.374 178.537C310.297 177.033 309.687 175.287 309.545 173.299H314.09C314.209 174.672 314.67 175.808 315.475 176.708C316.292 177.596 317.322 178.259 318.565 178.697C319.82 179.123 321.169 179.336 322.613 179.336C324.294 179.336 325.803 179.064 327.141 178.519C328.478 177.963 329.538 177.193 330.319 176.211C331.1 175.216 331.491 174.056 331.491 172.731C331.491 171.523 331.154 170.541 330.479 169.783C329.804 169.026 328.916 168.41 327.816 167.937C326.715 167.463 325.525 167.049 324.247 166.694L319.772 165.415C316.931 164.599 314.682 163.433 313.025 161.917C311.368 160.402 310.539 158.42 310.539 155.969C310.539 153.933 311.09 152.158 312.191 150.643C313.303 149.116 314.795 147.932 316.665 147.091C318.547 146.239 320.648 145.813 322.968 145.813C325.312 145.813 327.395 146.233 329.218 147.074C331.041 147.902 332.485 149.039 333.551 150.483C334.628 151.927 335.196 153.566 335.255 155.401H330.994ZM345.492 182.674V146.31H367.438V150.216H349.896V162.503H366.302V166.41H349.896V178.768H367.722V182.674H345.492Z" fill="#16B8F3"/>
<defs>
<filter id="filter0_d_72_298" x="116.235" y="32.2305" width="68.7998" height="69.1006" filterUnits="userSpaceOnUse" color-interpolation-filters="sRGB">
<feFlood flood-opacity="0" result="BackgroundImageFix"/>
<feColorMatrix in="SourceAlpha" type="matrix" values="0 0 0 0 0 0 0 0 0 0 0 0 0 0 0 0 0 0 127 0" result="hardAlpha"/>
<feOffset dy="4"/>
<feGaussianBlur stdDeviation="2"/>
<feComposite in2="hardAlpha" operator="out"/>
<feColorMatrix type="matrix" values="0 0 0 0 0 0 0 0 0 0 0 0 0 0 0 0 0 0 0.25 0"/>
<feBlend mode="normal" in2="BackgroundImageFix" result="effect1_dropShadow_72_298"/>
<feBlend mode="normal" in="SourceGraphic" in2="effect1_dropShadow_72_298" result="shape"/>
</filter>
<filter id="filter1_d_72_298" x="14.9014" y="111.622" width="74.3945" height="55.9473" filterUnits="userSpaceOnUse" color-interpolation-filters="sRGB">
<feFlood flood-opacity="0" result="BackgroundImageFix"/>
<feColorMatrix in="SourceAlpha" type="matrix" values="0 0 0 0 0 0 0 0 0 0 0 0 0 0 0 0 0 0 127 0" result="hardAlpha"/>
<feOffset dy="4"/>
<feGaussianBlur stdDeviation="2"/>
<feComposite in2="hardAlpha" operator="out"/>
<feColorMatrix type="matrix" values="0 0 0 0 0 0 0 0 0 0 0 0 0 0 0 0 0 0 0.25 0"/>
<feBlend mode="normal" in2="BackgroundImageFix" result="effect1_dropShadow_72_298"/>
<feBlend mode="normal" in="SourceGraphic" in2="effect1_dropShadow_72_298" result="shape"/>
</filter>
<filter id="filter2_d_72_298" x="117.495" y="130.809" width="73.165" height="85.623" filterUnits="userSpaceOnUse" color-interpolation-filters="sRGB">
<feFlood flood-opacity="0" result="BackgroundImageFix"/>
<feColorMatrix in="SourceAlpha" type="matrix" values="0 0 0 0 0 0 0 0 0 0 0 0 0 0 0 0 0 0 127 0" result="hardAlpha"/>
<feOffset/>
<feGaussianBlur stdDeviation="5"/>
<feComposite in2="hardAlpha" operator="out"/>
<feColorMatrix type="matrix" values="0 0 0 0 0 0 0 0 0 0 0 0 0 0 0 0 0 0 0.52 0"/>
<feBlend mode="normal" in2="BackgroundImageFix" result="effect1_dropShadow_72_298"/>
<feBlend mode="normal" in="SourceGraphic" in2="effect1_dropShadow_72_298" result="shape"/>
</filter>
<linearGradient id="paint0_linear_72_298" x1="155.058" y1="125.083" x2="64.0953" y2="125.083" gradientUnits="userSpaceOnUse">
<stop offset="0.254808" stop-opacity="0"/>
<stop offset="0.990385" stop-opacity="0.91"/>
</linearGradient>
<linearGradient id="paint1_linear_72_298" x1="133.54" y1="46.0739" x2="167.731" y2="79.487" gradientUnits="userSpaceOnUse">
<stop offset="0.567308" stop-opacity="0"/>
<stop offset="1"/>
</linearGradient>
<linearGradient id="paint2_linear_72_298" x1="52.2817" y1="111.694" x2="51.9157" y2="159.498" gradientUnits="userSpaceOnUse">
<stop offset="0.567308" stop-opacity="0"/>
<stop offset="1"/>
</linearGradient>
<linearGradient id="paint3_linear_72_298" x1="176.97" y1="166.744" x2="131.185" y2="180.496" gradientUnits="userSpaceOnUse">
<stop offset="0.567308" stop-opacity="0"/>
<stop offset="1"/>
</linearGradient>
</defs>
</svg>
